<svg width="768" height="357" viewBox="0 0 768 357" fill="none" xmlns="http://www.w3.org/2000/svg">
<g clip-path="url(#clip0_184_161)">
<rect width="768" height="357" rx="20" fill="white"/>
<rect x="5" y="5" width="758" height="347" rx="15" stroke="#69B030" stroke-width="10"/>
<rect x="62" y="119" width="293.333" height="120" rx="50" fill="white"/>
<circle cx="94.2663" cy="192.333" r="26.6667" fill="#69B030"/>
<rect x="75.333" y="173.59" width="26.6667" height="26.6667" transform="rotate(-45 75.333 173.59)" fill="#69B030"/>
<rect x="80.1328" y="178.209" width="20" height="20" transform="rotate(-45 80.1328 178.209)" fill="white"/>
<circle cx="94.2656" cy="192.333" r="20" fill="white"/>
<rect x="90.7998" y="192.333" width="6.66667" height="40" fill="#69B030"/>
<rect x="97.4658" y="192.333" width="6.66667" height="40" fill="white"/>
<circle cx="137.866" cy="177.367" r="36.6667" fill="#69B030"/>
<rect x="111.833" y="151.594" width="36.6667" height="36.6667" transform="rotate(-45 111.833 151.594)" fill="#69B030"/>
<rect x="118.433" y="157.946" width="27.5" height="27.5" transform="rotate(-45 118.433 157.946)" fill="white"/>
<circle cx="137.866" cy="177.367" r="27.5" fill="white"/>
<rect x="133.1" y="177.367" width="9.16667" height="55" fill="#69B030"/>
<rect x="123.933" y="177.367" width="9.16667" height="55" fill="white"/>
<path d="M181.467 139.664C181.467 137.733 181.836 135.921 182.574 134.228C183.311 132.535 184.31 131.059 185.568 129.801C186.849 128.52 188.335 127.511 190.028 126.773C191.721 126.036 193.533 125.667 195.464 125.667H216.883V135.009H195.464C194.813 135.009 194.206 135.128 193.641 135.367C193.077 135.606 192.578 135.942 192.144 136.376C191.732 136.789 191.406 137.277 191.167 137.841C190.929 138.405 190.809 139.013 190.809 139.664C190.809 140.315 190.929 140.934 191.167 141.519C191.406 142.084 191.732 142.583 192.144 143.017C192.578 143.429 193.077 143.755 193.641 143.993C194.206 144.232 194.813 144.352 195.464 144.352H204.807C206.738 144.352 208.55 144.72 210.243 145.458C211.957 146.174 213.444 147.173 214.702 148.453C215.983 149.712 216.981 151.198 217.697 152.913C218.435 154.605 218.804 156.417 218.804 158.349C218.804 160.28 218.435 162.092 217.697 163.785C216.981 165.478 215.983 166.964 214.702 168.245C213.444 169.503 211.957 170.502 210.243 171.24C208.55 171.977 206.738 172.346 204.807 172.346H184.071V163.004H204.807C205.458 163.004 206.065 162.885 206.63 162.646C207.194 162.407 207.682 162.082 208.094 161.669C208.528 161.235 208.865 160.736 209.104 160.172C209.342 159.608 209.462 159 209.462 158.349C209.462 157.698 209.342 157.09 209.104 156.526C208.865 155.962 208.528 155.473 208.094 155.061C207.682 154.627 207.194 154.291 206.63 154.052C206.065 153.813 205.458 153.694 204.807 153.694H195.464C193.533 153.694 191.721 153.325 190.028 152.587C188.335 151.849 186.849 150.851 185.568 149.592C184.31 148.312 183.311 146.825 182.574 145.133C181.836 143.418 181.467 141.595 181.467 139.664Z" fill="#69B030"/>
<path d="M234.299 172.346H224.956V125.667H234.299V149.006L251.682 125.667H262.294L247.548 145.361L262.294 172.346H251.682L241.428 153.466L234.299 163.004V172.346Z" fill="#69B030"/>
<path d="M275.965 172.346H266.623V125.667H275.965V144.352H294.618V125.667H303.96V172.346H294.618V153.694H275.965V172.346Z" fill="#69B030"/>
<path d="M349.468 153.694C349.468 156.276 348.98 158.707 348.003 160.986C347.027 163.243 345.692 165.217 343.999 166.91C342.307 168.581 340.321 169.905 338.042 170.881C335.785 171.858 333.366 172.346 330.783 172.346C328.201 172.346 325.77 171.858 323.492 170.881C321.235 169.905 319.26 168.581 317.567 166.91C315.896 165.217 314.572 163.243 313.596 160.986C312.619 158.707 312.131 156.276 312.131 153.694V125.667H321.441V153.694C321.441 154.974 321.679 156.179 322.157 157.307C322.656 158.436 323.329 159.423 324.175 160.269C325.021 161.116 326.009 161.789 327.137 162.288C328.288 162.765 329.503 163.004 330.783 163.004C332.064 163.004 333.268 162.765 334.396 162.288C335.547 161.789 336.545 161.116 337.391 160.269C338.238 159.423 338.9 158.436 339.377 157.307C339.876 156.179 340.126 154.974 340.126 153.694V125.667H349.468V153.694Z" fill="#69B030"/>
<path d="M229.447 232.464H220.137V199.131C220.137 198.48 220.007 197.872 219.746 197.308C219.508 196.744 219.171 196.255 218.737 195.843C218.325 195.409 217.837 195.073 217.272 194.834C216.708 194.595 216.101 194.476 215.45 194.476C214.799 194.476 214.191 194.595 213.627 194.834C213.062 195.073 212.563 195.409 212.129 195.843C211.717 196.255 211.391 196.744 211.153 197.308C210.914 197.872 210.795 198.48 210.795 199.131V232.464H201.452V199.131C201.452 198.48 201.333 197.872 201.094 197.308C200.855 196.744 200.519 196.255 200.085 195.843C199.673 195.409 199.184 195.073 198.62 194.834C198.056 194.595 197.448 194.476 196.797 194.476C196.146 194.476 195.539 194.595 194.974 194.834C194.41 195.073 193.911 195.409 193.477 195.843C193.065 196.255 192.739 196.744 192.5 197.308C192.262 197.872 192.142 198.48 192.142 199.131V232.464H182.8V199.131C182.8 197.199 183.158 195.387 183.874 193.695C184.612 191.98 185.61 190.494 186.869 189.235C188.149 187.955 189.636 186.956 191.328 186.24C193.043 185.502 194.866 185.133 196.797 185.133C198.533 185.133 200.204 185.448 201.81 186.077C203.416 186.685 204.859 187.575 206.14 188.747C207.42 187.575 208.852 186.685 210.437 186.077C212.042 185.448 213.713 185.133 215.45 185.133C217.381 185.133 219.193 185.502 220.886 186.24C222.6 186.956 224.087 187.955 225.345 189.235C226.626 190.494 227.624 191.98 228.34 193.695C229.078 195.387 229.447 197.199 229.447 199.131V232.464Z" fill="#69B030"/>
<path d="M269.812 232.464H237.813V185.784H269.812V195.127H247.155V204.469H262.487V213.812H247.155V223.122H269.812V232.464Z" fill="#69B030"/>
<path d="M308.353 232.464H276.354V185.784H308.353V195.127H285.697V204.469H301.029V213.812H285.697V223.122H308.353V232.464Z" fill="#69B030"/>
<path d="M334.493 232.464H325.183V195.127H311.153V185.784H348.49V195.127H334.493V232.464Z" fill="#69B030"/>
<path d="M455.576 182.08H457.576V163.52H455.576V182.08ZM448.716 166.8H452.896V164.98H442.616V166.8H446.756V167.58C446.756 171.86 445.016 174.96 441.876 178.22L443.296 179.56C445.136 177.66 446.516 175.76 447.436 173.72L452.176 179.36L453.636 178.04L448.196 171.62C448.536 170.34 448.716 169 448.716 167.58V166.8ZM475.041 170.86C475.381 168.92 475.561 166.88 475.561 165.28V164.1H462.781V165.92H473.581C473.561 167 473.381 168.98 473.041 170.86H460.641V172.62H478.081V170.86H475.041ZM475.961 182.1V174.86H462.781V182.1H475.961ZM473.961 176.58V180.34H464.781V176.58H473.961ZM499.368 170.5V163.52H497.368V182.08H499.368V172.32H502.248V170.5H499.368ZM486.828 169.9V164.7H484.848V179.08H493.868V164.7H491.888V169.9H486.828ZM486.828 171.7H491.888V177.26H486.828V171.7ZM513.193 175.38H519.173V173.62H507.613V170.94H518.793V164.76H505.513V166.56H516.793V169.18H505.613V175.38H511.213V178.86H503.473V180.7H520.913V178.86H513.193V175.38ZM527.24 177.1C528.22 179.76 530.62 181.3 533.84 181.3C537.1 181.3 539.64 179.64 539.64 176.88C539.64 174.12 537.44 172.9 535.28 172.3L532.9 171.62C531.38 171.18 530.12 170.52 530.12 168.9C530.12 167.3 531.48 166.32 533.56 166.32C535.64 166.32 537.08 167.48 537.82 169.22L539.54 168.4C538.68 166.2 536.58 164.5 533.56 164.5C530.5 164.5 528.12 166.18 528.12 168.9C528.12 171.6 530.32 172.8 532.46 173.42L534.88 174.1C536.52 174.56 537.66 175.26 537.66 176.88C537.66 178.54 536.12 179.48 533.84 179.48C531.54 179.48 529.78 178.34 528.96 176.3L527.24 177.1ZM554.186 181L547.046 172.02L553.586 164.8H550.926L544.066 172.4V164.8H542.066V181H544.066V175.32L545.706 173.5L551.626 181H554.186ZM566.692 171.72H557.992V164.8H555.992V181H557.992V173.56H566.692V181H568.712V164.8H566.692V171.72ZM578.072 181.3C581.612 181.3 584.432 179.08 584.432 174.66V164.8H582.412V174.52C582.412 177.98 580.632 179.44 578.072 179.44C575.512 179.44 573.712 177.98 573.712 174.52V164.8H571.712V174.66C571.712 179.08 574.492 181.3 578.072 181.3ZM589.317 181V168.08L594.677 181H596.757L602.137 168.06V181H604.117V164.8H601.517L595.737 178.76L589.937 164.8H587.337V181H589.317ZM609.124 173.52H616.864V171.72H609.124V166.58H617.244V164.8H607.124V181H617.444V179.22H609.124V173.52ZM621.937 173.52H629.677V171.72H621.937V166.58H630.057V164.8H619.937V181H630.257V179.22H621.937V173.52ZM631.749 164.8V166.64H637.169V181H639.189V166.64H644.609V164.8H631.749ZM660.154 182.08H662.114V163.52H660.154V182.08ZM654.034 170.68V170.62C654.034 166.16 652.334 164.4 650.154 164.4C647.934 164.4 646.234 166.16 646.234 170.62V173.44C646.234 177.9 647.934 179.66 650.154 179.66C652.334 179.66 654.034 177.9 654.034 173.44V172.5H656.134V181.7H658.034V163.8H656.134V170.68H654.034ZM652.134 173.42C652.134 176.64 651.294 177.84 650.134 177.84C648.974 177.84 648.134 176.64 648.134 173.42V170.64C648.134 167.4 648.974 166.22 650.134 166.22C651.294 166.22 652.134 167.4 652.134 170.64V173.42ZM678.779 169.92H674.379V171.74H678.779V182.08H680.779V163.52H678.779V169.92ZM671.719 164.6H669.779V167.02C669.779 171.46 668.199 174.86 664.859 178.22L666.259 179.56C668.159 177.66 669.519 175.72 670.419 173.64L675.159 179.36L676.659 178.08L671.159 171.5C671.539 170.08 671.719 168.6 671.719 167.02V164.6ZM444.075 190.52H442.075V199.58H444.075V195.84H446.955V194H444.075V190.52ZM438.675 191.4H429.895V193.18H436.675C436.415 195.22 433.815 197.08 429.495 198.22L430.175 199.96C435.435 198.56 438.675 196.22 438.675 192.34V191.4ZM444.075 205.72V204.08H434.175V202.4H444.075V200.74H432.195V209.18H444.655V207.48H434.175V205.72H444.075ZM464.08 209.08V190.52H462.08V209.08H464.08ZM453.82 206.66C456.5 206.66 458.72 204.9 458.72 200.44V197.62C458.72 193.16 456.5 191.4 453.82 191.4C451.1 191.4 448.88 193.16 448.88 197.62V200.44C448.88 204.9 451.1 206.66 453.82 206.66ZM453.82 204.84C452.18 204.84 450.88 203.64 450.88 200.42V197.64C450.88 194.4 452.18 193.22 453.82 193.22C455.46 193.22 456.74 194.4 456.74 197.64V200.42C456.74 203.64 455.46 204.84 453.82 204.84ZM478.487 191.8V190.3H476.467V191.8H472.087V193.28H482.847V191.8H478.487ZM487.087 190.52H485.087V200.94H487.087V197.36H489.787V195.56H487.087V190.52ZM483.587 199.02C482.007 199.22 480.227 199.36 478.587 199.46V198.52C480.567 198.34 482.027 197.64 482.027 196.3V196.16C482.027 194.58 480.027 193.88 477.507 193.88C474.927 193.88 472.927 194.58 472.927 196.16V196.3C472.927 197.68 474.467 198.38 476.587 198.52V199.56C475.987 199.58 475.447 199.58 474.967 199.58H471.767L471.847 201.1H474.807C477.447 201.1 480.987 200.88 483.767 200.52L483.587 199.02ZM474.887 196.2C474.887 195.64 476.007 195.3 477.507 195.3C478.947 195.3 480.087 195.64 480.087 196.2V196.28C480.087 196.84 478.947 197.18 477.507 197.18C476.007 197.18 474.887 196.84 474.887 196.28V196.2ZM487.087 206.34V202.1H474.907V203.64H485.147V204.82H475.007V209.18H487.767V207.6H476.947V206.34H487.087ZM500.732 197.42H506.132V195.72H495.332V192.58H505.932V190.92H493.332V197.42H498.752V199.14H491.012V200.86H508.452V199.14H500.732V197.42ZM497.612 202.54C494.612 202.54 492.952 203.96 492.952 205.9C492.952 207.86 494.612 209.28 497.612 209.28H501.852C504.852 209.28 506.512 207.86 506.512 205.9C506.512 203.96 504.852 202.54 501.852 202.54H497.612ZM498.012 207.54C495.912 207.54 494.952 206.9 494.952 205.88C494.952 204.9 495.912 204.26 498.012 204.26H501.472C503.572 204.26 504.532 204.9 504.532 205.88C504.532 206.9 503.572 207.54 501.472 207.54H498.012ZM516.457 192.02V190.3H514.437V192.02H510.017V193.62H520.877V192.02H516.457ZM524.837 190.52H522.837V200.16H524.837V196.4H527.717V194.58H524.837V190.52ZM520.057 197.24C520.057 195.36 518.037 194.44 515.477 194.44C512.897 194.44 510.877 195.36 510.877 197.24V197.46C510.877 199.32 512.897 200.26 515.477 200.26C518.037 200.26 520.057 199.32 520.057 197.46V197.24ZM512.837 197.28C512.837 196.52 513.977 196.02 515.477 196.02C516.957 196.02 518.117 196.52 518.117 197.28V197.42C518.117 198.2 516.957 198.68 515.477 198.68C513.977 198.68 512.837 198.2 512.837 197.42V197.28ZM524.837 205.96V201.32H512.837V202.9H522.837V204.42H512.937V209.18H525.497V207.56H514.937V205.96H524.837ZM544.764 202.08L545.824 200.5L540.504 196.7C540.744 196.02 540.864 195.32 540.884 194.56H545.184V192.78H540.884V190.38H538.944V192.78H534.704V194.56H538.924C538.824 197.06 537.144 199.02 534.064 200.88L535.024 202.48C537.144 201.24 538.724 199.92 539.704 198.4L544.764 202.08ZM547.764 190.52V204.62H549.744V190.52H547.764ZM539.464 203.64H537.464V209.08H550.524V207.26H539.464V203.64ZM567.249 200.32C567.669 197.78 567.929 195.1 567.929 192.98V191.5H554.749V193.32H565.929V193.52C565.929 195.06 565.669 197.78 565.229 200.32H552.809V202.14H560.549V209.3H562.529V202.14H570.249V200.32H567.249ZM587.274 197.94V196.44H576.094V195.14H586.894V190.82H574.014V192.34H584.894V193.66H574.094V197.94H587.274ZM589.214 200.66V199.14H571.774V200.66H589.214ZM587.574 209.18V207.62H575.914V206.26H587.094V201.9H573.814V203.42H585.094V204.74H573.914V209.18H587.574ZM605.741 200.34L606.661 198.66L601.601 195.8C601.761 195.3 601.861 194.78 601.901 194.2H606.041V192.46H601.901V190.3H599.961V192.46H595.921V194.2H599.941C599.781 196.18 598.241 197.7 595.281 199.06L596.101 200.74C598.241 199.8 599.781 198.74 600.741 197.44L605.741 200.34ZM610.501 190.52H608.501V200.74H610.501V196.22H613.361V194.4H610.501V190.52ZM610.681 203.64V201.9H598.401V203.64H603.621C603.561 205.22 601.161 206.58 597.421 207.54L598.001 209.28C600.661 208.62 602.781 207.7 604.101 206.54L610.901 209.28L611.621 207.58L605.301 205.08C605.521 204.62 605.661 204.14 605.661 203.64H610.681ZM629.466 197.5V190.52H627.466V209.08H629.466V199.32H632.346V197.5H629.466ZM619.586 191.4C616.906 191.4 614.746 193.16 614.746 197.62V200.44C614.746 204.9 616.906 206.66 619.586 206.66C622.226 206.66 624.386 204.9 624.386 200.44V197.62C624.386 193.16 622.226 191.4 619.586 191.4ZM622.406 200.42C622.406 203.64 621.166 204.84 619.586 204.84C617.986 204.84 616.746 203.64 616.746 200.42V197.64C616.746 194.4 617.986 193.22 619.586 193.22C621.166 193.22 622.406 194.4 622.406 197.64V200.42ZM643.291 201.9H648.891V191.66H646.891V195.06H637.711V191.66H635.711V201.9H641.311V205.86H633.571V207.7H651.011V205.86H643.291V201.9ZM646.891 196.86V200.1H637.711V196.86H646.891ZM666.775 209.08H668.715V190.52H666.775V209.08ZM659.795 196.92V198.74H662.755V208.7H664.655V190.8H662.755V196.92H659.795ZM657.915 191.6H656.015V194.06C656.015 198.42 654.795 202 652.275 205.36L653.795 206.56C655.115 204.82 656.095 203 656.775 201.08L660.015 206.36L661.615 205.22L657.475 198.52C657.775 197.1 657.915 195.62 657.915 194.06V191.6ZM681.68 201.42C685.02 201.42 687.16 199.28 687.16 196.42C687.16 193.62 685.02 191.48 681.68 191.48H678.78C675.44 191.48 673.3 193.62 673.3 196.42C673.3 199.28 675.44 201.42 678.78 201.42H681.68ZM681.32 193.26C683.74 193.26 685.18 194.58 685.18 196.44C685.18 198.32 683.74 199.64 681.32 199.64H679.12C676.72 199.64 675.3 198.32 675.3 196.44C675.3 194.58 676.72 193.26 679.12 193.26H681.32ZM684.5 202.48H682.56V205.86H677.92V202.48H675.96V205.86H671.5V207.68H688.94V205.86H684.5V202.48ZM693.565 202.98L693.745 191.3H691.505L691.705 202.98H693.565ZM692.625 208.3C693.385 208.3 694.005 207.7 694.005 206.94C694.005 206.18 693.385 205.56 692.625 205.56C691.865 205.56 691.265 206.18 691.265 206.94C691.265 207.7 691.865 208.3 692.625 208.3Z" fill="black"/>
</g>
<defs>
<clipPath id="clip0_184_161">
<rect width="768" height="357" rx="20" fill="white"/>
</clipPath>
</defs>
</svg>
