<svg width="1100" height="450" viewBox="0 0 1100 450" fill="none" xmlns="http://www.w3.org/2000/svg">
<g clip-path="url(#clip0_143_180)">
<rect width="1100" height="450" rx="50" fill="white"/>
<circle cx="121" cy="275" r="100" fill="#69B030"/>
<rect x="50" y="204.711" width="100" height="100" transform="rotate(-45 50 204.711)" fill="#69B030"/>
<rect x="68" y="222.033" width="75" height="75" transform="rotate(-45 68 222.033)" fill="white"/>
<circle cx="121" cy="275" r="75" fill="white"/>
<rect x="108" y="275" width="25" height="150" fill="#69B030"/>
<rect x="133" y="275" width="25" height="150" fill="white"/>
<circle cx="284.5" cy="218.875" r="137.5" fill="#69B030"/>
<rect x="186.875" y="122.227" width="137.5" height="137.5" transform="rotate(-45 186.875 122.227)" fill="#69B030"/>
<rect x="211.625" y="146.045" width="103.125" height="103.125" transform="rotate(-45 211.625 146.045)" fill="white"/>
<circle cx="284.5" cy="218.875" r="103.125" fill="white"/>
<rect x="266.625" y="218.875" width="34.375" height="206.25" fill="#69B030"/>
<rect x="232.25" y="218.875" width="34.375" height="206.25" fill="white"/>
<path d="M448 77.4902C448 70.2474 449.383 63.4521 452.15 57.1045C454.917 50.7568 458.661 45.223 463.381 40.5029C468.182 35.7015 473.757 31.9173 480.104 29.1504C486.452 26.3835 493.247 25 500.49 25H580.812V60.0342H500.49C498.049 60.0342 495.77 60.4818 493.654 61.377C491.538 62.2721 489.667 63.5335 488.039 65.1611C486.493 66.7074 485.272 68.5384 484.377 70.6543C483.482 72.7702 483.034 75.0488 483.034 77.4902C483.034 79.9316 483.482 82.251 484.377 84.4482C485.272 86.5641 486.493 88.4359 488.039 90.0635C489.667 91.6097 491.538 92.8304 493.654 93.7256C495.77 94.6208 498.049 95.0684 500.49 95.0684H535.524C542.767 95.0684 549.562 96.4518 555.91 99.2188C562.339 101.904 567.914 105.648 572.634 110.449C577.435 115.169 581.179 120.744 583.864 127.173C586.631 133.521 588.015 140.316 588.015 147.559C588.015 154.801 586.631 161.597 583.864 167.944C581.179 174.292 577.435 179.867 572.634 184.668C567.914 189.388 562.339 193.132 555.91 195.898C549.562 198.665 542.767 200.049 535.524 200.049H457.766V165.015H535.524C537.966 165.015 540.244 164.567 542.36 163.672C544.476 162.777 546.307 161.556 547.854 160.01C549.481 158.382 550.743 156.51 551.638 154.395C552.533 152.279 552.98 150 552.98 147.559C552.98 145.117 552.533 142.839 551.638 140.723C550.743 138.607 549.481 136.776 547.854 135.229C546.307 133.602 544.476 132.34 542.36 131.445C540.244 130.55 537.966 130.103 535.524 130.103H500.49C493.247 130.103 486.452 128.719 480.104 125.952C473.757 123.185 468.182 119.442 463.381 114.722C458.661 109.92 454.917 104.346 452.15 97.998C449.383 91.569 448 84.7331 448 77.4902Z" fill="#69B030"/>
<path d="M646.12 200.049H611.086V25H646.12V112.524L711.306 25H751.101L695.803 98.8525L751.101 200.049H711.306L672.854 129.248L646.12 165.015V200.049Z" fill="#69B030"/>
<path d="M802.37 200.049H767.336V25H802.37V95.0684H872.316V25H907.351V200.049H872.316V130.103H802.37V200.049Z" fill="#69B030"/>
<path d="M1078 130.103C1078 139.787 1076.17 148.901 1072.51 157.446C1068.85 165.91 1063.84 173.315 1057.5 179.663C1051.15 185.929 1043.7 190.894 1035.16 194.556C1026.69 198.218 1017.62 200.049 1007.94 200.049C998.252 200.049 989.138 198.218 980.593 194.556C972.129 190.894 964.724 185.929 958.376 179.663C952.11 173.315 947.146 165.91 943.483 157.446C939.821 148.901 937.99 139.787 937.99 130.103V25H972.902V130.103C972.902 134.904 973.798 139.421 975.588 143.652C977.46 147.884 979.982 151.587 983.156 154.761C986.33 157.935 990.033 160.457 994.265 162.329C998.578 164.119 1003.14 165.015 1007.94 165.015C1012.74 165.015 1017.25 164.119 1021.49 162.329C1025.8 160.457 1029.54 157.935 1032.72 154.761C1035.89 151.587 1038.37 147.884 1040.16 143.652C1042.03 139.421 1042.97 134.904 1042.97 130.103V25H1078V130.103Z" fill="#69B030"/>
<path d="M627.927 425.49H593.015V300.49C593.015 298.049 592.526 295.77 591.55 293.654C590.655 291.538 589.393 289.707 587.766 288.161C586.219 286.534 584.388 285.272 582.272 284.377C580.157 283.482 577.878 283.034 575.437 283.034C572.995 283.034 570.716 283.482 568.601 284.377C566.485 285.272 564.613 286.534 562.985 288.161C561.439 289.707 560.218 291.538 559.323 293.654C558.428 295.77 557.98 298.049 557.98 300.49V425.49H522.946V300.49C522.946 298.049 522.499 295.77 521.604 293.654C520.708 291.538 519.447 289.707 517.819 288.161C516.273 286.534 514.442 285.272 512.326 284.377C510.21 283.482 507.932 283.034 505.49 283.034C503.049 283.034 500.77 283.482 498.654 284.377C496.538 285.272 494.667 286.534 493.039 288.161C491.493 289.707 490.272 291.538 489.377 293.654C488.482 295.77 488.034 298.049 488.034 300.49V425.49H453V300.49C453 293.247 454.343 286.452 457.028 280.104C459.795 273.675 463.539 268.101 468.259 263.381C473.06 258.579 478.635 254.836 484.982 252.15C491.411 249.383 498.247 248 505.49 248C512.001 248 518.267 249.18 524.289 251.54C530.311 253.819 535.723 257.155 540.524 261.55C545.326 257.155 550.697 253.819 556.638 251.54C562.66 249.18 568.926 248 575.437 248C582.679 248 589.475 249.383 595.822 252.15C602.251 254.836 607.826 258.579 612.546 263.381C617.347 268.101 621.091 273.675 623.776 280.104C626.543 286.452 627.927 293.247 627.927 300.49V425.49Z" fill="#69B030"/>
<path d="M779.294 425.49H659.299V250.441H779.294V285.476H694.333V320.51H751.828V355.544H694.333V390.456H779.294V425.49Z" fill="#69B030"/>
<path d="M923.825 425.49H803.83V250.441H923.825V285.476H838.864V320.51H896.359V355.544H838.864V390.456H923.825V425.49Z" fill="#69B030"/>
<path d="M1021.85 425.49H986.936V285.476H934.323V250.441H1074.34V285.476H1021.85V425.49Z" fill="#69B030"/>
</g>
<defs>
<clipPath id="clip0_143_180">
<rect width="1100" height="450" fill="white"/>
</clipPath>
</defs>
</svg>
